<?xml version="1.0" encoding="UTF-8"?>
<svg xmlns="http://www.w3.org/2000/svg" width="512" height="768" viewBox="0 0 512 768">
  <g transform="translate(0 0) scale(1.000)">
    <path d="M147.44 430 Q256 388 364.56 430 L346.2 600 Q256 650 165.8 600 Z" fill="#f1e8ff" stroke="#8b5cf6" stroke-width="6"/>
    <path d="M147.44 430 Q180.39999999999998 372 256 398 Q331.6 372 364.56 430" fill="#f1e8ff" stroke="#8b5cf6" stroke-width="5"/>
    <path d="M147.44 446 Q103.44 482 115.44 565" fill="none" stroke="#e1aa8d" stroke-width="24" stroke-linecap="round"/>
    <path d="M364.56 446 Q408.56 482 396.56 565" fill="none" stroke="#e1aa8d" stroke-width="24" stroke-linecap="round"/>
    <path d="M218 590 L204 738" stroke="#f1e8ff" stroke-width="48" stroke-linecap="round"/>
    <path d="M294 590 L308 738" stroke="#f1e8ff" stroke-width="48" stroke-linecap="round"/>
    <path d="M204 738 L176 738" stroke="#8b5cf6" stroke-width="24" stroke-linecap="round"/>
    <path d="M308 738 L336 738" stroke="#8b5cf6" stroke-width="24" stroke-linecap="round"/>
    <ellipse cx="256" cy="190" rx="67" ry="78" fill="#e1aa8d"/>
    <path d="M176 174 Q256 65 336 174 L327 300 Q302 245 256 236 Q210 245 185 300 Z" fill="#3b1e49"/>
    <path d="M190 158 Q256 118 322 158" fill="none" stroke="#3b1e49" stroke-width="22" stroke-linecap="round"/>
    <ellipse cx="225" cy="184" rx="9" ry="14" fill="#3c2148"/>
    <ellipse cx="287" cy="184" rx="9" ry="14" fill="#3c2148"/>
    <circle cx="228" cy="181" r="3" fill="#ffffff"/>
    <circle cx="290" cy="181" r="3" fill="#ffffff"/>
    <path d="M244 220 Q256 226 268 220" fill="none" stroke="#7a4b43" stroke-width="5" stroke-linecap="round"/>
    <path d="M222 150 Q238 142 249 148 M263 148 Q274 142 290 150" fill="none" stroke="#3b1e49" stroke-width="6" stroke-linecap="round"/>
    <path d="M180.39999999999998 416 Q256 446 331.6 416" fill="none" stroke="#8b5cf6" stroke-width="7"/>
    <circle cx="256" cy="414" r="9" fill="#8b5cf6"/>
  </g>
</svg>