<?xml version="1.0" encoding="UTF-8"?>
<svg xmlns="http://www.w3.org/2000/svg" width="1600" height="1000" viewBox="0 0 1600 1000">
  <defs>
    <linearGradient id="bg" x1="0" y1="0" x2="1" y2="1">
      <stop offset="0%" stop-color="#0b1020"/>
      <stop offset="100%" stop-color="#17182c"/>
    </linearGradient>
    <linearGradient id="pink" x1="0" y1="0" x2="1" y2="1">
      <stop offset="0%" stop-color="#ff8bb0"/>
      <stop offset="100%" stop-color="#f04f7a"/>
    </linearGradient>
    <linearGradient id="gold" x1="0" y1="0" x2="1" y2="1">
      <stop offset="0%" stop-color="#ffe48a"/>
      <stop offset="100%" stop-color="#d6a83d"/>
    </linearGradient>
    <linearGradient id="field" x1="0" y1="0" x2="0" y2="1">
      <stop offset="0%" stop-color="#5f9bd3"/>
      <stop offset="62%" stop-color="#8dc5ee"/>
      <stop offset="63%" stop-color="#3e7a48"/>
      <stop offset="100%" stop-color="#244b2d"/>
    </linearGradient>
    <filter id="shadow" x="-30%" y="-30%" width="160%" height="160%">
      <feDropShadow dx="0" dy="12" stdDeviation="10" flood-color="#000" flood-opacity="0.35"/>
    </filter>
    <style>
      .title { font: 700 34px sans-serif; fill: #f6f7ff; letter-spacing: 2px; }
      .sub { font: 600 16px sans-serif; fill: #abb4cf; letter-spacing: 1px; }
      .body { font: 500 18px sans-serif; fill: #e9ecf6; }
      .small { font: 500 14px sans-serif; fill: #b9c0d3; }
      .stat { font: 700 15px sans-serif; fill: #e9ecf6; }
      .value { font: 700 15px sans-serif; fill: #ff8fb1; }
      .pink { fill: #ff7fa5; }
      .gold { fill: #f2d06b; }
      .panel { fill: #131a2b; stroke: #2b3550; stroke-width: 2; }
      .line { stroke: #ff7fa5; stroke-width: 2; opacity: .6; }
    </style>
  </defs>

  <rect width="1600" height="1000" fill="url(#bg)"/>

  <text x="64" y="66" class="title">BASEBALL WAIFUS • CHARACTER ART CLOSURE v1</text>
  <text x="64" y="94" class="sub">BW001 • AIKO HANAMORI • R • FIRE • 3B • POWER</text>

  <!-- 2D CARD -->
  <g transform="translate(64,132)" filter="url(#shadow)">
    <rect width="590" height="790" rx="28" fill="#0f1424" stroke="#e4572e" stroke-width="5"/>
    <rect x="20" y="20" width="550" height="420" rx="22" fill="#24203a"/>
    <path d="M42 396 C120 310 210 260 314 278 C400 291 485 347 548 388 L548 420 L42 420 Z" fill="#372b49"/>
    <circle cx="292" cy="170" r="94" fill="#d99a78"/>
    <path d="M208 174 C208 96 260 62 319 69 C376 77 408 112 397 183 C372 150 341 134 300 132 C264 131 235 145 208 174 Z" fill="#5a3327"/>
    <path d="M213 156 C235 95 301 70 358 102 C376 113 388 128 397 151 C367 123 328 112 295 116 C263 119 239 133 213 156 Z" fill="#5a3327"/>
    <circle cx="261" cy="182" r="7" fill="#4a2b24"/><circle cx="324" cy="182" r="7" fill="#4a2b24"/>
    <path d="M276 217 Q292 231 309 217" fill="none" stroke="#7a3b31" stroke-width="5" stroke-linecap="round"/>
    <path d="M202 280 Q294 239 389 284 L431 409 L158 409 Z" fill="#f8f1dd"/>
    <path d="M193 284 L161 413 L120 413 L152 304 Z" fill="#ece7db"/>
    <path d="M393 287 L432 413 L476 413 L439 304 Z" fill="#ece7db"/>
    <path d="M160 413 L184 468 L270 468 L289 413 Z" fill="#2a2b35"/>
    <path d="M291 413 L313 468 L401 468 L430 413 Z" fill="#2a2b35"/>
    <path d="M154 403 L122 432 L92 409 L130 372 Z" fill="#e4572e"/>
    <rect x="18" y="458" width="554" height="305" rx="20" fill="#111728"/>
    <text x="34" y="496" font-size="38" font-family="sans-serif" font-weight="700" fill="#fff">Aiko Hanamori</text>
    <text x="34" y="528" font-size="22" font-family="sans-serif" font-weight="600" fill="#ff9bb8">The Power 3B</text>
    <rect x="390" y="478" width="148" height="44" rx="22" fill="#e4572e"/>
    <text x="438" y="507" text-anchor="middle" font-size="19" font-family="sans-serif" font-weight="700" fill="#fff">R • FIRE</text>

    <text x="34" y="572" class="stat">POWER</text><text x="166" y="572" class="value">72</text>
    <text x="248" y="572" class="stat">CONTACT</text><text x="374" y="572" class="value">64</text>
    <text x="454" y="572" class="stat">SPEED</text><text x="524" y="572" class="value">51</text>

    <text x="34" y="608" class="stat">PITCH</text><text x="166" y="608" class="value">51</text>
    <text x="248" y="608" class="stat">CONTROL</text><text x="374" y="608" class="value">60</text>
    <text x="454" y="608" class="stat">DEFENSE</text><text x="524" y="608" class="value">66</text>

    <text x="34" y="644" class="stat">CRITICAL</text><text x="166" y="644" class="value">9</text>
    <text x="248" y="644" class="stat">STAMINA</text><text x="374" y="644" class="value">76</text>

    <rect x="34" y="675" width="500" height="62" rx="14" fill="#1d263c"/>
    <text x="52" y="705" class="small">2D: colección, carta, perfil, historia, gacha</text>
    <text x="52" y="727" class="small">Arte expresivo • pose heroica • ilustración de alto detalle</text>
  </g>

  <!-- 3D GAMEPLAY -->
  <g transform="translate(700,132)" filter="url(#shadow)">
    <rect width="836" height="530" rx="28" fill="#0f1424" stroke="#3b82d0" stroke-width="4"/>
    <text x="28" y="42" class="title" font-size="26">3D GAMEPLAY PROFILE</text>
    <text x="28" y="68" class="sub">MISMA IDENTIDAD VISUAL • COSTE CONTROLADO • PC + ANDROID</text>

    <rect x="24" y="92" width="520" height="408" rx="20" fill="url(#field)"/>
    <path d="M105 452 L270 309 L442 452" fill="none" stroke="#e8dcc9" stroke-width="4"/>
    <circle cx="270" cy="313" r="10" fill="#f9f5e8"/>
    <path d="M82 452 H458" stroke="#d7c7aa" stroke-width="3" opacity=".7"/>
    <rect x="86" y="105" width="430" height="38" rx="15" fill="#111827" opacity=".86"/>
    <text x="301" y="131" text-anchor="middle" class="body">HOME • 3B • AT BAT</text>

    <!-- stylized 3D avatar -->
    <g transform="translate(235,166)">
      <ellipse cx="78" cy="296" rx="72" ry="16" fill="#0b1220" opacity=".35"/>
      <circle cx="78" cy="76" r="52" fill="#d99a78"/>
      <path d="M30 83 C20 27 49 0 79 1 C122 2 138 33 126 90 C108 65 83 53 61 58 C48 61 39 69 30 83 Z" fill="#5a3327"/>
      <path d="M21 45 Q76 7 137 45" fill="none" stroke="#2a2540" stroke-width="22" stroke-linecap="round"/>
      <circle cx="58" cy="80" r="5" fill="#4a2b24"/><circle cx="98" cy="80" r="5" fill="#4a2b24"/>
      <path d="M49 130 Q77 111 106 130 L133 246 Q80 270 26 246 Z" fill="#f8f1dd"/>
      <path d="M29 133 L2 238 L25 252 L57 164 Z" fill="#eef0f7"/>
      <path d="M105 134 L139 244 L158 237 L128 128 Z" fill="#eef0f7"/>
      <path d="M55 245 L44 303 L72 303 L84 249 Z" fill="#2d2f38"/>
      <path d="M94 245 L97 303 L126 303 L116 244 Z" fill="#2d2f38"/>
      <path d="M26 303 L72 303 L73 320 L22 320 Z" fill="#f0f2f5"/>
      <path d="M97 303 L140 303 L149 320 L98 320 Z" fill="#f0f2f5"/>
      <path d="M134 165 L206 112" stroke="#8a5b39" stroke-width="12" stroke-linecap="round"/>
      <path d="M205 112 L270 92" stroke="#5b3423" stroke-width="18" stroke-linecap="round"/>
      <circle cx="135" cy="165" r="12" fill="#d99a78"/>
    </g>

    <rect x="566" y="92" width="244" height="184" rx="18" class="panel"/>
    <text x="586" y="121" class="sub">RENDER CONTRACT</text>
    <text x="586" y="152" class="body">Silhouette preserved</text>
    <text x="586" y="181" class="body">Hair / face / accent stable</text>
    <text x="586" y="210" class="body">Equipment swappable</text>
    <text x="586" y="239" class="body">Animation event-driven</text>

    <rect x="566" y="294" width="244" height="206" rx="18" class="panel"/>
    <text x="586" y="324" class="sub">PERFORMANCE</text>
    <text x="586" y="353" class="body">Shared low-cost materials</text>
    <text x="586" y="382" class="body">LOD-ready skeleton</text>
    <text x="586" y="411" class="body">No gameplay in renderer</text>
    <text x="586" y="440" class="body">Android-safe texture budgets</text>
    <text x="586" y="469" class="body">Same PlayerData identity</text>
  </g>

  <!-- shared identity -->
  <g transform="translate(700,695)">
    <rect width="836" height="227" rx="28" fill="#0f1424" stroke="#2b3550" stroke-width="2"/>
    <text x="28" y="44" class="title" font-size="24">ART LOCK: ONE CHARACTER, TWO REPRESENTATIONS</text>
    <line x1="28" y1="62" x2="808" y2="62" class="line"/>
    <text x="28" y="98" class="body">2D CARD</text>
    <text x="205" y="98" class="body">→</text>
    <text x="232" y="98" class="body">hero illustration, expressions, profile, collection value</text>
    <text x="28" y="136" class="body">3D GAME</text>
    <text x="205" y="136" class="body">→</text>
    <text x="232" y="136" class="body">silhouette, motion readability, equipment variants, match performance</text>
    <text x="28" y="176" class="body">SHARED</text>
    <text x="205" y="176" class="body">→</text>
    <text x="232" y="176" class="body">face identity, hair language, body preset, colors, uniform motifs, visual IDs</text>
    <text x="28" y="207" class="small">Final production rule: gameplay data never depends on illustration or renderer internals.</text>
  </g>

  <text x="64" y="965" class="sub">VISUAL TARGET SHEET • ART DIRECTION REFERENCE • NOT A FINAL 3D ASSET OR FINAL ILLUSTRATION</text>
</svg>